<?xml version="1.0" encoding="utf-8"?>
<!-- Generator: Adobe Illustrator 24.2.3, SVG Export Plug-In . SVG Version: 6.00 Build 0)  -->
<svg version="1.1" id="Layer_1" xmlns="http://www.w3.org/2000/svg" xmlns:xlink="http://www.w3.org/1999/xlink" x="0px" y="0px"
	 viewBox="0 0 100 100" style="enable-background:new 0 0 100 100;" xml:space="preserve">
<style type="text/css">
	.st0{fill:none;stroke:#6B6B88;stroke-width:4;stroke-linecap:round;stroke-miterlimit:10;stroke-dasharray:14.0859,19.1165;}
	.st1{fill:#6B6B88;}
	.st2{fill:#7240FB;}
</style>
<g>
	<g>
		<circle class="st0" cx="198" cy="33" r="37"/>
	</g>
	<g>
		<path class="st1" d="M198,49.5L198,49.5c-2.8,0-5-2.2-5-5v-23c0-2.7,2.3-5,5-5l0,0c2.8,0,5,2.2,5,5v23
			C203,47.3,200.8,49.5,198,49.5z"/>
	</g>
	<g>
		<path class="st1" d="M214.5,33L214.5,33c0,2.8-2.3,5-5,5h-23c-2.8,0-5-2.2-5-5v0c0-2.7,2.3-5,5-5h23C212.3,28,214.5,30.2,214.5,33
			z"/>
	</g>
</g>
<g>
	<g>
		<path class="st2" d="M23.6,21.3c-3.7,3.4-6.6,7.4-8.8,11.9c-0.5,1-0.1,2.2,0.9,2.7C16,36,16.3,36,16.6,36c0.7,0,1.5-0.4,1.8-1.1
			c1.9-4,4.6-7.6,7.9-10.6c0.8-0.7,0.9-2,0.1-2.8C25.7,20.6,24.4,20.6,23.6,21.3z"/>
	</g>
	<g>
		<path class="st2" d="M42.2,84.1c-4.4-1-8.4-2.8-12.1-5.3c-0.9-0.6-2.2-0.4-2.8,0.5c-0.6,0.9-0.4,2.2,0.5,2.8
			c4.1,2.8,8.7,4.8,13.5,5.9c0.1,0,0.3,0,0.4,0c0.9,0,1.7-0.6,1.9-1.6C44,85.5,43.3,84.4,42.2,84.1z"/>
	</g>
	<g>
		<path class="st2" d="M41.7,15.9c0.1,0,0.3,0,0.5-0.1c4.3-1,8.9-1.2,13.2-0.5c1.1,0.2,2.1-0.6,2.3-1.7c0.2-1.1-0.6-2.1-1.7-2.3
			c-4.9-0.7-10-0.6-14.7,0.5c-1.1,0.2-1.7,1.3-1.5,2.4C39.9,15.3,40.7,15.9,41.7,15.9z"/>
	</g>
	<g>
		<path class="st2" d="M15.1,52.5c-0.1-1.1-1-1.9-2.1-1.9c-1.1,0.1-1.9,1-1.9,2.1c0.3,5,1.6,9.8,3.8,14.3c0.3,0.7,1.1,1.1,1.8,1.1
			c0.3,0,0.6-0.1,0.9-0.2c1-0.5,1.4-1.7,0.9-2.7C16.5,61.2,15.4,56.9,15.1,52.5z"/>
	</g>
	<g>
		<path class="st2" d="M71.8,77.4c-3.5,2.8-7.4,4.9-11.7,6.2c-1.1,0.3-1.7,1.4-1.3,2.5c0.3,0.9,1.1,1.4,1.9,1.4c0.2,0,0.4,0,0.6-0.1
			c4.8-1.4,9.2-3.7,13.1-6.9c0.9-0.7,1-1.9,0.3-2.8C74,76.8,72.7,76.7,71.8,77.4z"/>
	</g>
	<g>
		<path class="st2" d="M87,47.9c-1.1,0-2,0.9-2,2V50c0,4.5-0.8,8.9-2.5,13c-0.4,1,0.1,2.2,1.1,2.6c0.2,0.1,0.5,0.1,0.7,0.1
			c0.8,0,1.5-0.5,1.9-1.3C88.1,59.9,89,55,89,50v-0.1C89,48.7,88.1,47.9,87,47.9z"/>
	</g>
	<g>
		<path class="st2" d="M83.8,30.6c-2.5-4.3-5.7-8.1-9.6-11.2c-0.9-0.7-2.1-0.5-2.8,0.3c-0.7,0.9-0.5,2.1,0.3,2.8
			c3.5,2.8,6.4,6.2,8.6,10c0.4,0.6,1,1,1.7,1c0.3,0,0.7-0.1,1-0.3C84.1,32.8,84.4,31.6,83.8,30.6z"/>
	</g>
	<g>
		<path class="st2" d="M66.5,50c0-2.8-2.3-5-5-5H55v-6.5c0-2.8-2.3-5-5-5s-5,2.3-5,5V45h-6.5c-2.8,0-5,2.3-5,5s2.3,5,5,5H45v6.5
			c0,2.8,2.3,5,5,5s5-2.3,5-5V55h6.5C64.3,55,66.5,52.8,66.5,50z"/>
	</g>
</g>
</svg>
