<?xml version="1.0" encoding="utf-8"?>
<!-- Generator: Adobe Illustrator 24.2.3, SVG Export Plug-In . SVG Version: 6.00 Build 0)  -->
<svg version="1.1" id="Layer_1" xmlns="http://www.w3.org/2000/svg" xmlns:xlink="http://www.w3.org/1999/xlink" x="0px" y="0px"
	 viewBox="0 0 100 100" style="enable-background:new 0 0 100 100;" xml:space="preserve">
<style type="text/css">
	.st0{fill:none;stroke:#6B6B88;stroke-width:4;stroke-linecap:round;stroke-miterlimit:10;stroke-dasharray:14.0859,19.1165;}
	.st1{fill:#6B6B88;}
	.st2{fill:none;stroke:#7240FB;stroke-width:4;stroke-linecap:round;stroke-miterlimit:10;stroke-dasharray:29.1661,17.3173;}
	.st3{fill:none;stroke:#6B6B88;stroke-width:4;stroke-linecap:round;stroke-miterlimit:10;}
	.st4{fill:#7240FB;}
</style>
<g>
	<g>
		<circle class="st0" cx="165" cy="47" r="37"/>
	</g>
	<g>
		<path class="st1" d="M165,63.5L165,63.5c-2.8,0-5-2.2-5-5v-23c0-2.8,2.3-5,5-5l0,0c2.8,0,5,2.2,5,5v23
			C170,61.3,167.8,63.5,165,63.5z"/>
	</g>
	<g>
		<path class="st1" d="M181.5,47L181.5,47c0,2.8-2.3,5-5,5h-23c-2.8,0-5-2.2-5-5v0c0-2.8,2.3-5,5-5h23C179.3,42,181.5,44.2,181.5,47
			z"/>
	</g>
</g>
<g>
	<circle class="st2" cx="50" cy="50" r="37"/>
</g>
<g>
	<path class="st1" d="M149,112.5L149,112.5c-2.8,0-5-2.3-5-5v-23c0-2.7,2.3-5,5-5l0,0c2.8,0,5,2.3,5,5v23
		C154,110.3,151.8,112.5,149,112.5z"/>
</g>
<g>
	<path class="st1" d="M165.5,96L165.5,96c0,2.8-2.3,5-5,5h-23c-2.8,0-5-2.3-5-5v0c0-2.7,2.3-5,5-5h23C163.3,91,165.5,93.3,165.5,96z
		"/>
</g>
<circle class="st3" cx="-81" cy="62" r="37"/>
<g>
	<path class="st1" d="M-81,78.5L-81,78.5c-2.8,0-5-2.3-5-5v-23c0-2.8,2.3-5,5-5h0c2.7,0,5,2.2,5,5v23C-76,76.3-78.3,78.5-81,78.5z"
		/>
</g>
<g>
	<path class="st1" d="M-64.5,62L-64.5,62c0,2.8-2.3,5-5,5h-23c-2.7,0-5-2.3-5-5v0c0-2.8,2.3-5,5-5h23C-66.8,57-64.5,59.2-64.5,62z"
		/>
</g>
<path class="st4" d="M50,61L50,61c-1.7,0-3-1.3-3-3V42c0-1.6,1.3-3,3-3h0c1.6,0,3,1.3,3,3v16C53,59.7,51.7,61,50,61z"/>
<path class="st4" d="M61,50L61,50c0,1.7-1.3,3-3,3H42c-1.6,0-3-1.3-3-3v0c0-1.6,1.3-3,3-3h16C59.7,47,61,48.3,61,50z"/>
</svg>
